<svg width="14" height="14" viewBox="0 0 14 14" fill="none" xmlns="http://www.w3.org/2000/svg">
<path d="M7.04455 7.83941L7.00035 7.79521L6.95615 7.83941L1.77334 13.023C1.66779 13.1286 1.52462 13.1879 1.37535 13.1879C1.22607 13.1879 1.08291 13.1286 0.977354 13.023C0.8718 12.9175 0.8125 12.7743 0.8125 12.625C0.8125 12.4757 0.8718 12.3326 0.977354 12.227L6.16094 7.04421L6.20515 7.00001L6.16094 6.95581L0.977354 1.77301C0.977353 1.773 0.977352 1.773 0.977351 1.773C0.871799 1.66745 0.8125 1.52429 0.8125 1.37501C0.8125 1.22574 0.8718 1.08257 0.977354 0.977018C1.08291 0.871464 1.22607 0.812164 1.37535 0.812164C1.52462 0.812164 1.66778 0.871463 1.77334 0.977015C1.77334 0.977016 1.77334 0.977017 1.77334 0.977018L6.95615 6.16061L7.00035 6.20481L7.04455 6.16061L12.2274 0.977015C12.3329 0.871464 12.4761 0.812164 12.6253 0.812164C12.7746 0.812164 12.9178 0.871464 13.0233 0.977018C13.1289 1.08257 13.1882 1.22574 13.1882 1.37501C13.1882 1.52429 13.1289 1.66745 13.0233 1.77301L7.83975 6.95581L7.79555 7.00001L7.83975 7.04421L13.0233 12.227C13.0756 12.2793 13.1171 12.3413 13.1454 12.4096C13.1736 12.4779 13.1882 12.5511 13.1882 12.625C13.1882 12.6989 13.1736 12.7721 13.1454 12.8404C13.1171 12.9087 13.0756 12.9707 13.0233 13.023C12.9711 13.0753 12.909 13.1167 12.8407 13.145C12.7725 13.1733 12.6993 13.1879 12.6253 13.1879C12.5514 13.1879 12.4782 13.1733 12.41 13.145C12.3417 13.1167 12.2796 13.0753 12.2274 13.023L7.04455 7.83941Z" fill="#64748B" stroke="#64748B" stroke-width="0.125"/>
</svg>
